<svg width="168" height="216" viewBox="0 0 168 216" fill="none" xmlns="http://www.w3.org/2000/svg">
<path d="M138.428 0H104.143C99.4097 0 95.5713 3.83839 95.5713 8.57143V42.8571C95.5713 47.5902 99.4097 51.4286 104.143 51.4286H138.428C143.161 51.4286 147 47.5902 147 42.8571V8.57143C147 3.83839 143.17 0 138.428 0ZM134.143 38.5714H108.428V12.8571H134.143V38.5714ZM138.428 77.1429H121.286V68.5714H95.5713V120H112.714V94.2857H121.286V102.857H147V68.5714H138.428V77.1429ZM121.286 120H129.857V111.429H121.286V120ZM138.428 120H147V111.429H138.428V120ZM125.571 21.4286H117V30H125.571V21.4286Z" fill="#73C93E"/>
<path d="M77.4809 0.428558H61.5095H34.3338H23.6377C22.1858 0.428558 21 1.62262 21 3.08475V25.1384C21 26.6005 22.1858 27.7946 23.6377 27.7946H34.358V78.9202C34.358 100.852 52.096 118.714 73.8753 118.714C75.3272 118.714 76.513 117.52 76.513 116.058V94.0044C76.513 92.5423 75.3272 91.3482 73.8753 91.3482C67.0511 91.3482 61.5337 85.7921 61.5337 78.9202V41.1487V27.7946H77.5051C78.9571 27.7946 80.1429 26.6005 80.1429 25.1384V3.08475C80.1187 1.62262 78.9329 0.428558 77.4809 0.428558Z" fill="#73C93E"/>
<path d="M23.9687 156H18.6285C18.2745 156 17.9854 156.289 17.9854 156.643V184.005C17.9854 184.359 18.2745 184.648 18.6285 184.648H23.9687C24.3228 184.648 24.6119 184.359 24.6119 184.005V156.643C24.6119 156.289 24.3287 156 23.9687 156Z" fill="#2C2C2C"/>
<path d="M123.709 156H108.621C108.267 156 107.978 156.289 107.978 156.643V161.983C107.978 162.337 108.267 162.627 108.621 162.627H115.006L106.379 183.751C106.379 183.751 106.379 183.757 106.373 183.757L106.361 183.787H106.367C106.343 183.852 106.326 183.922 106.326 183.999C106.326 184.353 106.615 184.642 106.969 184.642H122.057C122.411 184.642 122.7 184.353 122.7 183.999V178.659C122.7 178.305 122.411 178.016 122.057 178.016H115.667L124.299 156.897C124.299 156.891 124.305 156.885 124.305 156.879L124.311 156.862C124.335 156.791 124.353 156.72 124.353 156.637C124.353 156.289 124.063 156 123.709 156Z" fill="#2C2C2C"/>
<path d="M103.765 156H98.4247C98.0706 156 97.7815 156.289 97.7815 156.643V184.005C97.7815 184.359 98.0706 184.648 98.4247 184.648H103.765C104.119 184.648 104.408 184.359 104.408 184.005V156.643C104.402 156.289 104.119 156 103.765 156Z" fill="#2C2C2C"/>
<path d="M13.7724 156H9.87788H3.25132H0.643183C0.289137 156 0 156.289 0 156.643V161.983C0 162.337 0.289137 162.627 0.643183 162.627H3.25722V175.006C3.25722 180.317 7.58248 184.642 12.8932 184.642C13.2472 184.642 13.5364 184.353 13.5364 183.999V178.659C13.5364 178.305 13.2472 178.016 12.8932 178.016C11.2292 178.016 9.88378 176.67 9.88378 175.006V165.86V162.627H13.7783C14.1323 162.627 14.4215 162.337 14.4215 161.983V156.643C14.4156 156.289 14.1264 156 13.7724 156Z" fill="#2C2C2C"/>
<path d="M39.2047 161.983V156.643C39.2047 156.289 38.9156 156 38.5615 156H37.8239C32.5132 156 28.188 160.325 28.188 165.636V183.999C28.188 184.353 28.4771 184.642 28.8312 184.642H34.1714C34.5254 184.642 34.8145 184.353 34.8145 183.999V174.782V165.636C34.8145 163.972 36.1599 162.627 37.8239 162.627H38.5615C38.9156 162.627 39.2047 162.337 39.2047 161.983Z" fill="#2C2C2C"/>
<path d="M49.0763 156C47.0346 156 42.851 156 42.851 156C42.497 156 42.2078 156.289 42.2078 156.643V161.983C42.2078 162.337 42.497 162.627 42.851 162.627H49.0763C50.6518 162.627 51.9382 163.836 52.0739 165.37H47.9729C42.6622 165.37 38.3369 169.696 38.3369 175.006C38.3369 180.317 42.6622 184.642 47.9729 184.642H52.0857H52.2981H58.0691C58.4231 184.642 58.7122 184.353 58.7122 183.999V165.636C58.7122 160.325 54.3929 156 49.0763 156ZM52.0857 178.016H47.9729C46.3088 178.016 44.9635 176.67 44.9635 175.006C44.9635 173.342 46.3088 171.997 47.9729 171.997H52.0857V178.016Z" fill="#2C2C2C"/>
<path d="M144.339 156C144.339 156 136.786 156 135.346 156C130.035 156 125.71 160.325 125.71 165.636V175.006C125.71 180.317 130.035 184.642 135.346 184.642C140.657 184.642 144.982 180.317 144.982 175.006V165.636C144.982 163.754 144.982 156.643 144.982 156.643C144.982 156.289 144.693 156 144.339 156ZM135.346 178.016C133.682 178.016 132.337 176.67 132.337 175.006V165.636C132.337 163.972 133.682 162.627 135.346 162.627H138.355V164.409V175.006C138.355 176.67 137.004 178.016 135.346 178.016Z" fill="#2C2C2C"/>
<path d="M167.262 156.643C167.262 156.289 166.973 156 166.619 156C166.619 156 159.066 156 157.626 156C152.316 156 147.99 160.325 147.99 165.636V175.006C147.99 180.317 152.316 184.642 157.626 184.642C162.937 184.642 167.262 180.317 167.262 175.006V165.636C167.262 163.754 167.262 156.643 167.262 156.643ZM157.626 178.016C155.962 178.016 154.617 176.67 154.617 175.006V165.636C154.617 163.972 155.962 162.627 157.626 162.627H160.636V164.409V175.006C160.642 176.67 159.29 178.016 157.626 178.016Z" fill="#2C2C2C"/>
<path d="M84.5696 156C82.1503 156 79.9375 156.897 78.244 158.372C76.5505 156.897 74.3436 156 71.9243 156C66.6136 156 62.2883 160.325 62.2883 165.636V183.999C62.2883 184.353 62.5775 184.642 62.9315 184.642H68.2717C68.6258 184.642 68.9149 184.353 68.9149 183.999V174.782V165.636C68.9149 163.972 70.2603 162.627 71.9243 162.627C73.5883 162.627 74.9337 163.972 74.9337 165.636V174.782V183.999C74.9337 184.353 75.2228 184.642 75.5769 184.642H80.917C81.2711 184.642 81.5602 184.353 81.5602 183.999V174.782V165.636C81.5602 163.972 82.9056 162.627 84.5696 162.627C86.2336 162.627 87.579 163.972 87.579 165.636V183.999C87.579 184.353 87.8681 184.642 88.2222 184.642H93.5624C93.9164 184.642 94.2056 184.353 94.2056 183.999V165.636C94.2056 160.325 89.8803 156 84.5696 156Z" fill="#2C2C2C"/>
<path d="M136.121 199.756C136.544 199.202 137.121 198.735 137.851 198.355C138.58 197.976 139.405 197.786 140.324 197.786C141.375 197.786 142.331 198.049 143.192 198.574C144.068 199.085 144.754 199.807 145.25 200.741C145.746 201.675 145.994 202.748 145.994 203.96C145.994 205.171 145.746 206.258 145.25 207.221C144.754 208.17 144.068 208.914 143.192 209.454C142.331 209.98 141.375 210.242 140.324 210.242C139.405 210.242 138.588 210.06 137.873 209.695C137.157 209.316 136.574 208.849 136.121 208.294V215.781H133.625V197.983H136.121V199.756ZM143.455 203.96C143.455 203.128 143.28 202.412 142.93 201.814C142.594 201.201 142.141 200.741 141.572 200.435C141.018 200.114 140.419 199.953 139.777 199.953C139.15 199.953 138.551 200.114 137.982 200.435C137.427 200.756 136.975 201.223 136.625 201.836C136.289 202.449 136.121 203.171 136.121 204.003C136.121 204.835 136.289 205.565 136.625 206.192C136.975 206.805 137.427 207.272 137.982 207.594C138.551 207.915 139.15 208.075 139.777 208.075C140.419 208.075 141.018 207.915 141.572 207.594C142.141 207.258 142.594 206.776 142.93 206.149C143.28 205.521 143.455 204.791 143.455 203.96Z" fill="#73C93E"/>
<path d="M121.503 199.756C121.926 199.202 122.503 198.735 123.233 198.355C123.962 197.976 124.787 197.786 125.706 197.786C126.757 197.786 127.713 198.049 128.574 198.574C129.45 199.085 130.136 199.807 130.632 200.741C131.128 201.675 131.376 202.748 131.376 203.96C131.376 205.171 131.128 206.258 130.632 207.221C130.136 208.17 129.45 208.914 128.574 209.454C127.713 209.98 126.757 210.242 125.706 210.242C124.787 210.242 123.97 210.06 123.255 209.695C122.539 209.316 121.956 208.849 121.503 208.294V215.781H119.008V197.983H121.503V199.756ZM128.837 203.96C128.837 203.128 128.662 202.412 128.312 201.814C127.976 201.201 127.523 200.741 126.954 200.435C126.4 200.114 125.801 199.953 125.159 199.953C124.532 199.953 123.933 200.114 123.364 200.435C122.809 200.756 122.357 201.223 122.007 201.836C121.671 202.449 121.503 203.171 121.503 204.003C121.503 204.835 121.671 205.565 122.007 206.192C122.357 206.805 122.809 207.272 123.364 207.594C123.933 207.915 124.532 208.075 125.159 208.075C125.801 208.075 126.4 207.915 126.954 207.594C127.523 207.258 127.976 206.776 128.312 206.149C128.662 205.521 128.837 204.791 128.837 203.96Z" fill="#73C93E"/>
<path d="M113.135 206.937H106.764L105.67 210.045H103.064L108.516 194.809H111.405L116.856 210.045H114.229L113.135 206.937ZM112.434 204.901L109.96 197.83L107.465 204.901H112.434Z" fill="#73C93E"/>
<path d="M88.7363 197.786C89.6704 197.786 90.495 197.976 91.2101 198.355C91.9398 198.72 92.509 199.18 92.9176 199.734V197.983H95.4352V210.242C95.4352 211.352 95.2017 212.337 94.7347 213.198C94.2676 214.074 93.589 214.759 92.6987 215.256C91.8231 215.752 90.7722 216 89.5463 216C87.9117 216 86.5544 215.613 85.4744 214.84C84.3944 214.081 83.7815 213.045 83.6355 211.731H86.1093C86.299 212.359 86.7004 212.862 87.3133 213.242C87.9409 213.636 88.6852 213.833 89.5463 213.833C90.5533 213.833 91.3633 213.526 91.9763 212.913C92.6039 212.3 92.9176 211.41 92.9176 210.242V208.228C92.4944 208.798 91.9179 209.279 91.1882 209.673C90.4731 210.053 89.6558 210.242 88.7363 210.242C87.6855 210.242 86.7223 209.98 85.8466 209.454C84.9855 208.914 84.2996 208.17 83.7888 207.221C83.2925 206.258 83.0444 205.171 83.0444 203.96C83.0444 202.748 83.2925 201.675 83.7888 200.741C84.2996 199.807 84.9855 199.085 85.8466 198.574C86.7223 198.049 87.6855 197.786 88.7363 197.786ZM92.9176 204.003C92.9176 203.171 92.7425 202.449 92.3922 201.836C92.0566 201.223 91.6114 200.756 91.0568 200.435C90.5022 200.114 89.9039 199.953 89.2617 199.953C88.6196 199.953 88.0212 200.114 87.4666 200.435C86.912 200.741 86.4596 201.201 86.1093 201.814C85.7736 202.412 85.6058 203.128 85.6058 203.96C85.6058 204.791 85.7736 205.521 86.1093 206.149C86.4596 206.776 86.912 207.258 87.4666 207.594C88.0358 207.915 88.6341 208.075 89.2617 208.075C89.9039 208.075 90.5022 207.915 91.0568 207.594C91.6114 207.272 92.0566 206.805 92.3922 206.192C92.7425 205.565 92.9176 204.835 92.9176 204.003Z" fill="#73C93E"/>
<path d="M75.9643 197.786C76.913 197.786 77.7595 197.983 78.5038 198.377C79.2627 198.771 79.8538 199.355 80.277 200.128C80.7003 200.902 80.9119 201.836 80.9119 202.931V210.045H78.4381V203.303C78.4381 202.223 78.1681 201.398 77.6281 200.829C77.0881 200.245 76.3511 199.953 75.417 199.953C74.483 199.953 73.7387 200.245 73.1841 200.829C72.6441 201.398 72.3741 202.223 72.3741 203.303V210.045H69.8784V197.983H72.3741V199.362C72.7827 198.866 73.3008 198.479 73.9284 198.202C74.5706 197.925 75.2492 197.786 75.9643 197.786Z" fill="#73C93E"/>
<path d="M65.5949 196.385C65.1425 196.385 64.763 196.232 64.4566 195.925C64.1501 195.619 63.9968 195.239 63.9968 194.787C63.9968 194.334 64.1501 193.955 64.4566 193.648C64.763 193.342 65.1425 193.189 65.5949 193.189C66.0328 193.189 66.4049 193.342 66.7114 193.648C67.0179 193.955 67.1711 194.334 67.1711 194.787C67.1711 195.239 67.0179 195.619 66.7114 195.925C66.4049 196.232 66.0328 196.385 65.5949 196.385ZM66.8209 197.983V210.045H64.3252V197.983H66.8209Z" fill="#73C93E"/>
<path d="M59.3104 200.019V206.696C59.3104 207.148 59.4126 207.477 59.6169 207.681C59.8358 207.871 60.2007 207.966 60.7115 207.966H62.2439V210.045H60.2736C59.1499 210.045 58.2888 209.783 57.6904 209.257C57.092 208.732 56.7928 207.878 56.7928 206.696V200.019H55.3699V197.983H56.7928V194.984H59.3104V197.983H62.2439V200.019H59.3104Z" fill="#73C93E"/>
<path d="M50.7115 199.734C51.0763 199.121 51.558 198.647 52.1563 198.311C52.7693 197.961 53.4917 197.786 54.3236 197.786V200.369H53.6888C52.7109 200.369 51.9666 200.617 51.4558 201.114C50.9596 201.61 50.7115 202.471 50.7115 203.697V210.045H48.2158V197.983H50.7115V199.734Z" fill="#73C93E"/>
<path d="M39.7064 210.242C38.5681 210.242 37.5392 209.987 36.6197 209.476C35.7002 208.951 34.9778 208.221 34.4524 207.287C33.927 206.338 33.6643 205.244 33.6643 204.003C33.6643 202.777 33.9343 201.69 34.4743 200.741C35.0143 199.793 35.7513 199.063 36.6854 198.552C37.6194 198.041 38.6629 197.786 39.8159 197.786C40.9689 197.786 42.0124 198.041 42.9464 198.552C43.8805 199.063 44.6175 199.793 45.1575 200.741C45.6975 201.69 45.9675 202.777 45.9675 204.003C45.9675 205.229 45.6902 206.317 45.1356 207.265C44.581 208.214 43.8221 208.951 42.8589 209.476C41.9102 209.987 40.8594 210.242 39.7064 210.242ZM39.7064 208.075C40.3486 208.075 40.947 207.922 41.5016 207.615C42.0708 207.309 42.5305 206.849 42.8808 206.236C43.231 205.623 43.4062 204.879 43.4062 204.003C43.4062 203.128 43.2383 202.391 42.9027 201.792C42.567 201.179 42.1218 200.72 41.5673 200.413C41.0127 200.107 40.4143 199.953 39.7721 199.953C39.13 199.953 38.5316 200.107 37.977 200.413C37.437 200.72 37.0065 201.179 36.6854 201.792C36.3643 202.391 36.2038 203.128 36.2038 204.003C36.2038 205.302 36.5321 206.309 37.1889 207.024C37.8602 207.725 38.6994 208.075 39.7064 208.075Z" fill="#73C93E"/>
<path d="M26.4945 210.199C25.4729 210.199 24.5534 210.024 23.7361 209.673C22.9189 209.308 22.2767 208.798 21.8097 208.141C21.3426 207.484 21.1091 206.718 21.1091 205.842H23.7799C23.8383 206.499 24.0937 207.039 24.5461 207.462C25.0132 207.885 25.6626 208.097 26.4945 208.097C27.3556 208.097 28.0269 207.893 28.5086 207.484C28.9902 207.061 29.231 206.521 29.231 205.864C29.231 205.353 29.0778 204.937 28.7713 204.616C28.4794 204.295 28.1072 204.047 27.6548 203.872C27.2169 203.697 26.604 203.507 25.8159 203.303C24.8234 203.04 24.0134 202.777 23.3859 202.515C22.7729 202.237 22.2475 201.814 21.8097 201.245C21.3718 200.676 21.1529 199.917 21.1529 198.968C21.1529 198.092 21.3718 197.326 21.8097 196.67C22.2475 196.013 22.8605 195.509 23.6486 195.159C24.4367 194.809 25.3488 194.634 26.3851 194.634C27.8591 194.634 29.0632 195.006 29.9972 195.75C30.9459 196.48 31.4713 197.487 31.5734 198.771H28.815C28.7713 198.217 28.5086 197.742 28.0269 197.348C27.5453 196.954 26.9105 196.757 26.1224 196.757C25.4072 196.757 24.8234 196.94 24.371 197.304C23.9186 197.669 23.6924 198.195 23.6924 198.881C23.6924 199.348 23.831 199.734 24.1083 200.041C24.4002 200.333 24.7651 200.566 25.2029 200.741C25.6407 200.917 26.2391 201.106 26.998 201.311C28.0051 201.588 28.8223 201.865 29.4499 202.142C30.0921 202.42 30.6321 202.85 31.0699 203.434C31.5223 204.003 31.7486 204.769 31.7486 205.733C31.7486 206.506 31.5369 207.236 31.1137 207.922C30.705 208.608 30.0994 209.162 29.2967 209.586C28.5086 209.994 27.5745 210.199 26.4945 210.199Z" fill="#73C93E"/>
</svg>
