<svg width="168" height="60" viewBox="0 0 168 60" fill="none" xmlns="http://www.w3.org/2000/svg">
<path d="M23.9687 0H18.6285C18.2745 0 17.9854 0.289137 17.9854 0.643183V28.005C17.9854 28.3591 18.2745 28.6482 18.6285 28.6482H23.9687C24.3228 28.6482 24.6119 28.3591 24.6119 28.005V0.643183C24.6119 0.289137 24.3287 0 23.9687 0Z" fill="#2C2C2C"/>
<path d="M123.709 0H108.621C108.267 0 107.978 0.289137 107.978 0.643183V5.98337C107.978 6.33742 108.267 6.62656 108.621 6.62656H115.006L106.379 27.7513C106.379 27.7513 106.379 27.7572 106.373 27.7572L106.361 27.7867H106.367C106.343 27.8516 106.326 27.9224 106.326 27.9991C106.326 28.3532 106.615 28.6423 106.969 28.6423H122.057C122.411 28.6423 122.7 28.3532 122.7 27.9991V22.6589C122.7 22.3049 122.411 22.0158 122.057 22.0158H115.667L124.299 0.896916C124.299 0.891015 124.305 0.885115 124.305 0.879214L124.311 0.861512C124.335 0.790702 124.353 0.719893 124.353 0.637282C124.353 0.289137 124.063 0 123.709 0Z" fill="#2C2C2C"/>
<path d="M103.765 0H98.4247C98.0706 0 97.7815 0.289137 97.7815 0.643183V28.005C97.7815 28.3591 98.0706 28.6482 98.4247 28.6482H103.765C104.119 28.6482 104.408 28.3591 104.408 28.005V0.643183C104.402 0.289137 104.119 0 103.765 0Z" fill="#2C2C2C"/>
<path d="M13.7724 0H9.87788H3.25132H0.643183C0.289137 0 0 0.289137 0 0.643183V5.98337C0 6.33742 0.289137 6.62656 0.643183 6.62656H3.25722V19.0064C3.25722 24.317 7.58248 28.6423 12.8932 28.6423C13.2472 28.6423 13.5364 28.3532 13.5364 27.9991V22.6589C13.5364 22.3049 13.2472 22.0158 12.8932 22.0158C11.2292 22.0158 9.88378 20.6704 9.88378 19.0064V9.86018V6.62656H13.7783C14.1323 6.62656 14.4215 6.33742 14.4215 5.98337V0.643183C14.4156 0.289137 14.1264 0 13.7724 0Z" fill="#2C2C2C"/>
<path d="M39.2047 5.98337V0.643183C39.2047 0.289137 38.9156 0 38.5615 0H37.8239C32.5132 0 28.188 4.32526 28.188 9.63595V27.9991C28.188 28.3532 28.4771 28.6423 28.8312 28.6423H34.1714C34.5254 28.6423 34.8145 28.3532 34.8145 27.9991V18.7821V9.63595C34.8145 7.97193 36.1599 6.62656 37.8239 6.62656H38.5615C38.9156 6.62656 39.2047 6.33742 39.2047 5.98337Z" fill="#2C2C2C"/>
<path d="M49.0763 0C47.0346 0 42.851 0 42.851 0C42.497 0 42.2078 0.289137 42.2078 0.643183V5.98337C42.2078 6.33742 42.497 6.62656 42.851 6.62656H49.0763C50.6518 6.62656 51.9382 7.83621 52.0739 9.37041H47.9729C42.6622 9.37041 38.3369 13.6957 38.3369 19.0064C38.3369 24.317 42.6622 28.6423 47.9729 28.6423H52.0857H52.2981H58.0691C58.4231 28.6423 58.7122 28.3532 58.7122 27.9991V9.63595C58.7122 4.32526 54.3929 0 49.0763 0ZM52.0857 22.0158H47.9729C46.3088 22.0158 44.9635 20.6704 44.9635 19.0064C44.9635 17.3423 46.3088 15.997 47.9729 15.997H52.0857V22.0158Z" fill="#2C2C2C"/>
<path d="M144.339 0C144.339 0 136.786 0 135.346 0C130.035 0 125.71 4.32526 125.71 9.63595V19.0064C125.71 24.317 130.035 28.6423 135.346 28.6423C140.657 28.6423 144.982 24.317 144.982 19.0064V9.63595C144.982 7.7536 144.982 0.643183 144.982 0.643183C144.982 0.289137 144.693 0 144.339 0ZM135.346 22.0158C133.682 22.0158 132.337 20.6704 132.337 19.0064V9.63595C132.337 7.97193 133.682 6.62656 135.346 6.62656H138.355V8.40859V19.0064C138.355 20.6704 137.004 22.0158 135.346 22.0158Z" fill="#2C2C2C"/>
<path d="M167.262 0.643183C167.262 0.289137 166.973 0 166.619 0C166.619 0 159.066 0 157.626 0C152.316 0 147.99 4.32526 147.99 9.63595V19.0064C147.99 24.317 152.316 28.6423 157.626 28.6423C162.937 28.6423 167.262 24.317 167.262 19.0064V9.63595C167.262 7.7536 167.262 0.643183 167.262 0.643183ZM157.626 22.0158C155.962 22.0158 154.617 20.6704 154.617 19.0064V9.63595C154.617 7.97193 155.962 6.62656 157.626 6.62656H160.636V8.40859V19.0064C160.642 20.6704 159.29 22.0158 157.626 22.0158Z" fill="#2C2C2C"/>
<path d="M84.5696 0C82.1503 0 79.9375 0.896916 78.244 2.37211C76.5505 0.896916 74.3436 0 71.9243 0C66.6136 0 62.2883 4.32526 62.2883 9.63595V27.9991C62.2883 28.3532 62.5775 28.6423 62.9315 28.6423H68.2717C68.6258 28.6423 68.9149 28.3532 68.9149 27.9991V18.7821V9.63595C68.9149 7.97193 70.2603 6.62656 71.9243 6.62656C73.5883 6.62656 74.9337 7.97193 74.9337 9.63595V18.7821V27.9991C74.9337 28.3532 75.2228 28.6423 75.5769 28.6423H80.917C81.2711 28.6423 81.5602 28.3532 81.5602 27.9991V18.7821V9.63595C81.5602 7.97193 82.9056 6.62656 84.5696 6.62656C86.2336 6.62656 87.579 7.97193 87.579 9.63595V27.9991C87.579 28.3532 87.8681 28.6423 88.2222 28.6423H93.5624C93.9164 28.6423 94.2056 28.3532 94.2056 27.9991V9.63595C94.2056 4.32526 89.8803 0 84.5696 0Z" fill="#2C2C2C"/>
<path d="M136.121 43.7563C136.544 43.2017 137.121 42.7347 137.851 42.3552C138.58 41.9757 139.405 41.786 140.324 41.786C141.375 41.786 142.331 42.0487 143.192 42.5741C144.068 43.0849 144.754 43.8074 145.25 44.7414C145.746 45.6755 145.994 46.7482 145.994 47.9595C145.994 49.1708 145.746 50.2581 145.25 51.2214C144.754 52.17 144.068 52.9143 143.192 53.4543C142.331 53.9798 141.375 54.2424 140.324 54.2424C139.405 54.2424 138.588 54.06 137.873 53.6952C137.157 53.3157 136.574 52.8487 136.121 52.2941V59.7811H133.625V41.983H136.121V43.7563ZM143.455 47.9595C143.455 47.1276 143.28 46.4125 142.93 45.8141C142.594 45.2011 142.141 44.7414 141.572 44.4349C141.018 44.1138 140.419 43.9533 139.777 43.9533C139.15 43.9533 138.551 44.1138 137.982 44.4349C137.427 44.756 136.975 45.223 136.625 45.836C136.289 46.449 136.121 47.1714 136.121 48.0033C136.121 48.8352 136.289 49.5649 136.625 50.1925C136.975 50.8054 137.427 51.2725 137.982 51.5935C138.551 51.9146 139.15 52.0752 139.777 52.0752C140.419 52.0752 141.018 51.9146 141.572 51.5935C142.141 51.2579 142.594 50.7762 142.93 50.1487C143.28 49.5211 143.455 48.7914 143.455 47.9595Z" fill="#73C93E"/>
<path d="M121.503 43.7563C121.926 43.2017 122.503 42.7347 123.233 42.3552C123.962 41.9757 124.787 41.786 125.706 41.786C126.757 41.786 127.713 42.0487 128.574 42.5741C129.45 43.0849 130.136 43.8074 130.632 44.7414C131.128 45.6755 131.376 46.7482 131.376 47.9595C131.376 49.1708 131.128 50.2581 130.632 51.2214C130.136 52.17 129.45 52.9143 128.574 53.4543C127.713 53.9798 126.757 54.2424 125.706 54.2424C124.787 54.2424 123.97 54.06 123.255 53.6952C122.539 53.3157 121.956 52.8487 121.503 52.2941V59.7811H119.008V41.983H121.503V43.7563ZM128.837 47.9595C128.837 47.1276 128.662 46.4125 128.312 45.8141C127.976 45.2011 127.523 44.7414 126.954 44.4349C126.4 44.1138 125.801 43.9533 125.159 43.9533C124.532 43.9533 123.933 44.1138 123.364 44.4349C122.809 44.756 122.357 45.223 122.007 45.836C121.671 46.449 121.503 47.1714 121.503 48.0033C121.503 48.8352 121.671 49.5649 122.007 50.1925C122.357 50.8054 122.809 51.2725 123.364 51.5935C123.933 51.9146 124.532 52.0752 125.159 52.0752C125.801 52.0752 126.4 51.9146 126.954 51.5935C127.523 51.2579 127.976 50.7762 128.312 50.1487C128.662 49.5211 128.837 48.7914 128.837 47.9595Z" fill="#73C93E"/>
<path d="M113.135 50.9368H106.764L105.67 54.0454H103.064L108.516 38.8087H111.405L116.856 54.0454H114.229L113.135 50.9368ZM112.434 48.9009L109.96 41.8298L107.465 48.9009H112.434Z" fill="#73C93E"/>
<path d="M88.7363 41.786C89.6704 41.786 90.495 41.9757 91.2101 42.3552C91.9398 42.7201 92.509 43.1798 92.9176 43.7344V41.983H95.4352V54.2425C95.4352 55.3516 95.2017 56.3368 94.7347 57.1979C94.2676 58.0735 93.589 58.7595 92.6987 59.2557C91.8231 59.7519 90.7722 60 89.5463 60C87.9117 60 86.5544 59.6132 85.4744 58.8397C84.3944 58.0808 83.7815 57.0446 83.6355 55.7311H86.1093C86.299 56.3587 86.7004 56.8622 87.3133 57.2416C87.9409 57.6357 88.6852 57.8327 89.5463 57.8327C90.5533 57.8327 91.3633 57.5262 91.9763 56.9133C92.6039 56.3003 92.9176 55.41 92.9176 54.2425V52.2284C92.4944 52.7976 91.9179 53.2792 91.1882 53.6733C90.4731 54.0527 89.6558 54.2425 88.7363 54.2425C87.6855 54.2425 86.7223 53.9798 85.8466 53.4543C84.9855 52.9144 84.2996 52.17 83.7888 51.2214C83.2925 50.2581 83.0444 49.1709 83.0444 47.9595C83.0444 46.7482 83.2925 45.6755 83.7888 44.7414C84.2996 43.8074 84.9855 43.0849 85.8466 42.5741C86.7223 42.0487 87.6855 41.786 88.7363 41.786ZM92.9176 48.0033C92.9176 47.1714 92.7425 46.449 92.3922 45.836C92.0566 45.223 91.6114 44.756 91.0568 44.4349C90.5022 44.1138 89.9039 43.9533 89.2617 43.9533C88.6196 43.9533 88.0212 44.1138 87.4666 44.4349C86.912 44.7414 86.4596 45.2011 86.1093 45.8141C85.7736 46.4125 85.6058 47.1276 85.6058 47.9595C85.6058 48.7914 85.7736 49.5211 86.1093 50.1487C86.4596 50.7762 86.912 51.2579 87.4666 51.5935C88.0358 51.9146 88.6341 52.0752 89.2617 52.0752C89.9039 52.0752 90.5022 51.9146 91.0568 51.5935C91.6114 51.2725 92.0566 50.8054 92.3922 50.1925C92.7425 49.5649 92.9176 48.8352 92.9176 48.0033Z" fill="#73C93E"/>
<path d="M75.9643 41.786C76.913 41.786 77.7595 41.983 78.5038 42.3771C79.2627 42.7711 79.8538 43.3549 80.277 44.1284C80.7003 44.9019 80.9119 45.836 80.9119 46.9306V54.0454H78.4381V47.3027C78.4381 46.2228 78.1681 45.3982 77.6281 44.829C77.0881 44.2452 76.3511 43.9533 75.417 43.9533C74.483 43.9533 73.7387 44.2452 73.1841 44.829C72.6441 45.3982 72.3741 46.2228 72.3741 47.3027V54.0454H69.8784V41.983H72.3741V43.3622C72.7827 42.866 73.3008 42.4793 73.9284 42.202C74.5706 41.9247 75.2492 41.786 75.9643 41.786Z" fill="#73C93E"/>
<path d="M65.5949 40.3849C65.1425 40.3849 64.763 40.2317 64.4566 39.9252C64.1501 39.6187 63.9968 39.2392 63.9968 38.7868C63.9968 38.3344 64.1501 37.9549 64.4566 37.6484C64.763 37.3419 65.1425 37.1887 65.5949 37.1887C66.0328 37.1887 66.4049 37.3419 66.7114 37.6484C67.0179 37.9549 67.1711 38.3344 67.1711 38.7868C67.1711 39.2392 67.0179 39.6187 66.7114 39.9252C66.4049 40.2317 66.0328 40.3849 65.5949 40.3849ZM66.8209 41.983V54.0454H64.3252V41.983H66.8209Z" fill="#73C93E"/>
<path d="M59.3104 44.019V50.696C59.3104 51.1484 59.4126 51.4768 59.6169 51.6811C59.8358 51.8708 60.2007 51.9657 60.7115 51.9657H62.2439V54.0454H60.2736C59.1499 54.0454 58.2888 53.7827 57.6904 53.2573C57.092 52.7319 56.7928 51.8781 56.7928 50.696V44.019H55.3699V41.983H56.7928V38.9839H59.3104V41.983H62.2439V44.019H59.3104Z" fill="#73C93E"/>
<path d="M50.7115 43.7344C51.0763 43.1214 51.558 42.6471 52.1563 42.3114C52.7693 41.9611 53.4917 41.786 54.3236 41.786V44.3692H53.6888C52.7109 44.3692 51.9666 44.6174 51.4558 45.1136C50.9596 45.6098 50.7115 46.4709 50.7115 47.6968V54.0454H48.2158V41.983H50.7115V43.7344Z" fill="#73C93E"/>
<path d="M39.7064 54.2425C38.5681 54.2425 37.5392 53.987 36.6197 53.4762C35.7002 52.9508 34.9778 52.2211 34.4524 51.2871C33.927 50.3384 33.6643 49.2438 33.6643 48.0033C33.6643 46.7773 33.9343 45.6901 34.4743 44.7414C35.0143 43.7928 35.7513 43.063 36.6854 42.5522C37.6194 42.0414 38.6629 41.786 39.8159 41.786C40.9689 41.786 42.0124 42.0414 42.9464 42.5522C43.8805 43.063 44.6175 43.7928 45.1575 44.7414C45.6975 45.6901 45.9675 46.7773 45.9675 48.0033C45.9675 49.2292 45.6902 50.3165 45.1356 51.2652C44.581 52.2138 43.8221 52.9508 42.8589 53.4762C41.9102 53.987 40.8594 54.2425 39.7064 54.2425ZM39.7064 52.0752C40.3486 52.0752 40.947 51.9219 41.5016 51.6154C42.0708 51.3089 42.5305 50.8492 42.8808 50.2362C43.231 49.6233 43.4062 48.879 43.4062 48.0033C43.4062 47.1276 43.2383 46.3906 42.9027 45.7922C42.567 45.1792 42.1218 44.7195 41.5673 44.413C41.0127 44.1065 40.4143 43.9533 39.7721 43.9533C39.13 43.9533 38.5316 44.1065 37.977 44.413C37.437 44.7195 37.0065 45.1792 36.6854 45.7922C36.3643 46.3906 36.2038 47.1276 36.2038 48.0033C36.2038 49.3022 36.5321 50.3092 37.1889 51.0244C37.8602 51.7249 38.6994 52.0752 39.7064 52.0752Z" fill="#73C93E"/>
<path d="M26.4945 54.1987C25.4729 54.1987 24.5534 54.0235 23.7361 53.6733C22.9189 53.3084 22.2767 52.7976 21.8097 52.1408C21.3426 51.4841 21.1091 50.7179 21.1091 49.8422H23.7799C23.8383 50.4989 24.0937 51.0389 24.5461 51.4622C25.0132 51.8854 25.6626 52.097 26.4945 52.097C27.3556 52.097 28.0269 51.8927 28.5086 51.4841C28.9902 51.0608 29.231 50.5208 29.231 49.8641C29.231 49.3533 29.0778 48.9373 28.7713 48.6162C28.4794 48.2952 28.1072 48.0471 27.6548 47.8719C27.2169 47.6968 26.604 47.5071 25.8159 47.3027C24.8234 47.04 24.0134 46.7773 23.3859 46.5146C22.7729 46.2373 22.2475 45.8141 21.8097 45.2449C21.3718 44.6757 21.1529 43.9168 21.1529 42.9682C21.1529 42.0925 21.3718 41.3263 21.8097 40.6695C22.2475 40.0128 22.8605 39.5092 23.6486 39.159C24.4367 38.8087 25.3488 38.6336 26.3851 38.6336C27.8591 38.6336 29.0632 39.0057 29.9972 39.7501C30.9459 40.4798 31.4713 41.4868 31.5734 42.7711H28.815C28.7713 42.2165 28.5086 41.7422 28.0269 41.3482C27.5453 40.9541 26.9105 40.7571 26.1224 40.7571C25.4072 40.7571 24.8234 40.9395 24.371 41.3044C23.9186 41.6692 23.6924 42.1946 23.6924 42.8806C23.6924 43.3476 23.831 43.7344 24.1083 44.0409C24.4002 44.3327 24.7651 44.5663 25.2029 44.7414C25.6407 44.9165 26.2391 45.1063 26.998 45.3106C28.0051 45.5879 28.8223 45.8652 29.4499 46.1425C30.0921 46.4198 30.6321 46.8503 31.0699 47.4341C31.5223 48.0033 31.7486 48.7695 31.7486 49.7327C31.7486 50.5062 31.5369 51.236 31.1137 51.9219C30.705 52.6079 30.0994 53.1624 29.2967 53.5857C28.5086 53.9943 27.5745 54.1987 26.4945 54.1987Z" fill="#73C93E"/>
</svg>
