<svg width="120" height="120" viewBox="0 0 120 120" fill="none" xmlns="http://www.w3.org/2000/svg">
<g clip-path="url(#clip0_4662_1195)">
<path d="M41.8828 91.6641C40.733 93.3853 41.2017 95.7141 42.923 96.8648C44.6295 98.0074 46.973 97.5534 48.1237 95.8247C48.1641 95.7656 52.1016 90 60 90C67.7648 90 71.7328 95.618 71.8805 95.8313C72.6094 96.9141 73.8047 97.5 75 97.5C75.7177 97.5 76.4409 97.2949 77.0782 96.87C78.7995 95.7202 79.2682 93.3919 78.1184 91.6692C77.8828 91.2891 71.8594 82.5 60 82.5C48.1406 82.5 42.1406 91.2891 41.8828 91.6641ZM48.75 60H26.25C24.1875 60 22.5 61.6875 22.5 63.75C22.5 65.8125 24.1875 67.5 26.25 67.5H48.75C50.8125 67.5 52.5 65.8125 52.5 63.75C52.5 61.6875 50.8125 60 48.75 60ZM93.75 67.5C95.8125 67.5 97.5 65.8125 97.5 63.75C97.5 61.6875 95.8125 60 93.75 60H71.25C69.1875 60 67.5 61.6875 67.5 63.75C67.5 65.8125 69.1875 67.5 71.25 67.5H93.75ZM13.125 37.5C20.3625 37.5 26.25 31.125 26.25 23.2922C26.25 17.8758 19.9945 7.44141 16.2703 1.70859C15.5789 0.640781 14.393 0 13.1203 0C11.8477 0 10.6688 0.644531 9.975 1.71023C6.25078 7.46719 0 17.925 0 23.2922C0 31.125 5.88984 37.5 13.125 37.5ZM13.1297 10.8703C17.1727 17.7352 18.75 22.0312 18.75 23.2922C18.75 27 16.2258 30 13.125 30C10.0734 30 7.5 26.9297 7.5 23.2922C7.5 22.0453 9.08203 17.7609 13.1297 10.8703ZM60 0C50.25 0 40.5703 2.39531 31.9922 6.92578C30.1641 7.89141 29.4609 10.1625 30.4453 11.993C31.1953 13.8234 33.6562 14.5312 35.5078 13.5539C42.9844 9.59531 51.4688 7.5 60 7.5C88.9453 7.5 112.5 31.0547 112.5 60C112.5 88.9453 88.9453 112.5 60 112.5C31.0547 112.5 7.5 88.9453 7.5 60C7.5 55.2422 8.13352 50.5336 9.38602 46.0008C9.93984 43.9922 8.76797 41.9297 6.77109 41.3906C4.76719 40.8516 2.70703 42 2.15695 43.9922C0.725156 49.1953 0 54.5625 0 60C0 93.0938 26.9062 120 60 120C93.0938 120 120 93.0938 120 60C120 26.9062 93.0938 0 60 0Z" fill="#AAAAAA"/>
</g>
<defs>
<clipPath id="clip0_4662_1195">
<rect width="120" height="120" fill="white"/>
</clipPath>
</defs>
</svg>
